<?xml version="1.0" encoding="UTF-8"?>
<!DOCTYPE svg PUBLIC "-//W3C//DTD SVG 1.1//EN" "http://www.w3.org/Graphics/SVG/1.1/DTD/svg11.dtd">
<svg xmlns="http://www.w3.org/2000/svg" version="1.1" width="180px" height="45px" style="shape-rendering:geometricPrecision; text-rendering:geometricPrecision; image-rendering:optimizeQuality; fill-rule:evenodd; clip-rule:evenodd" xmlns:xlink="http://www.w3.org/1999/xlink">
<g><path style="opacity:0.998" fill="#b08bbb" d="M -0.5,-0.5 C 14.5,-0.5 29.5,-0.5 44.5,-0.5C 44.8164,14.5781 44.483,29.5781 43.5,44.5C 28.8333,44.5 14.1667,44.5 -0.5,44.5C -0.5,29.5 -0.5,14.5 -0.5,-0.5 Z"/></g>
<g><path style="opacity:0.814" fill="#af8aba" d="M 179.5,14.5 C 179.5,15.1667 179.5,15.8333 179.5,16.5C 176.886,16.9251 174.886,18.2584 173.5,20.5C 174.57,24.022 176.57,26.6887 179.5,28.5C 179.5,29.1667 179.5,29.8333 179.5,30.5C 177.473,30.6621 175.473,30.4955 173.5,30C 172.36,28.0266 171.027,26.1933 169.5,24.5C 168.266,26.3983 168.599,28.065 170.5,29.5C 167.5,30.8333 164.5,30.8333 161.5,29.5C 162.744,26.3618 163.411,23.0284 163.5,19.5C 163.266,15.3687 162.6,11.3687 161.5,7.5C 163.861,7.32588 166.194,6.99255 168.5,6.5C 168.334,11.1785 168.501,15.8452 169,20.5C 171.303,19.2561 171.803,17.5894 170.5,15.5C 173.428,14.5159 176.428,14.1826 179.5,14.5 Z"/></g>
<g><path style="opacity:0.896" fill="#af8aba" d="M 84.5,6.5 C 85.5,6.5 86.5,6.5 87.5,6.5C 86.4911,9.52741 86.4911,12.5274 87.5,15.5C 91.2213,13.7575 94.3879,14.4241 97,17.5C 98.534,22.8398 97.3674,27.3398 93.5,31C 89.2915,30.7127 85.1249,30.546 81,30.5C 82.3215,24.0558 82.8215,17.3892 82.5,10.5C 81.325,10.719 80.325,10.3857 79.5,9.5C 80.9469,8.06517 82.6136,7.06517 84.5,6.5 Z M 88.5,17.5 C 91.8925,17.3753 93.2259,19.042 92.5,22.5C 92.9184,25.2706 91.9184,27.2706 89.5,28.5C 88.914,28.2907 88.414,27.9574 88,27.5C 87.2534,24.0764 87.42,20.7431 88.5,17.5 Z"/></g>
<g><path style="opacity:1" fill="#f8f5f8" d="M 24.5,7.5 C 25.4959,7.41423 26.3292,7.74756 27,8.5C 27.6667,16.5 27.6667,24.5 27,32.5C 25.3088,36.2127 22.4755,37.3794 18.5,36C 17.6433,35.3109 16.9767,34.4776 16.5,33.5C 18.3435,33.2448 20.3435,33.0781 22.5,33C 23,32.5 23.5,32 24,31.5C 24.4997,23.5069 24.6664,15.5069 24.5,7.5 Z"/></g>
<g><path style="opacity:0.822" fill="#af8aba" d="M 51.5,8.5 C 55.1667,8.5 58.8333,8.5 62.5,8.5C 62.5,9.5 62.5,10.5 62.5,11.5C 61.5,11.5 60.5,11.5 59.5,11.5C 59.6662,17.8421 59.4995,24.1754 59,30.5C 57.5881,35.2911 54.4214,37.1244 49.5,36C 48,33.8333 48.5,32.3333 51,31.5C 52.2613,31.7591 53.2613,32.4258 54,33.5C 54.4997,26.1742 54.6663,18.8409 54.5,11.5C 53.5,11.5 52.5,11.5 51.5,11.5C 51.5,10.5 51.5,9.5 51.5,8.5 Z"/></g>
<g><path style="opacity:0.798" fill="#af8aba" d="M 116.5,15.5 C 114.167,14.1667 111.833,12.8333 109.5,11.5C 109.5,17.1667 109.5,22.8333 109.5,28.5C 110.675,28.281 111.675,28.6143 112.5,29.5C 108.833,30.8333 105.167,30.8333 101.5,29.5C 102.325,28.6143 103.325,28.281 104.5,28.5C 104.5,22.8333 104.5,17.1667 104.5,11.5C 103.167,11.5 101.833,11.5 100.5,11.5C 100.5,12.8333 100.5,14.1667 100.5,15.5C 99.0222,15.762 97.6888,15.4287 96.5,14.5C 97.3482,12.5914 97.6816,10.5914 97.5,8.5C 103.833,8.5 110.167,8.5 116.5,8.5C 116.5,10.8333 116.5,13.1667 116.5,15.5 Z"/></g>
<g><path style="opacity:0.847" fill="#af8bbb" d="M 67.5,14.5 C 77.1863,13.8807 80.6863,18.2141 78,27.5C 72.1377,33.1937 67.1377,32.527 63,25.5C 62.3188,20.8713 63.8188,17.2046 67.5,14.5 Z M 69.5,16.5 C 70.8221,16.33 71.9887,16.6634 73,17.5C 74.7975,20.8648 74.7975,24.1982 73,27.5C 71.6667,28.8333 70.3333,28.8333 69,27.5C 67.0282,23.727 67.1948,20.0604 69.5,16.5 Z"/></g>
<g><path style="opacity:0.886" fill="#af8abb" d="M 116.5,15.5 C 118.06,15.4809 119.56,15.1476 121,14.5C 121.945,14.9054 122.612,15.572 123,16.5C 124.789,14.771 126.956,14.1043 129.5,14.5C 129.714,16.1439 129.38,17.6439 128.5,19C 126.82,19.0343 125.32,19.201 124,19.5C 122.711,22.3508 122.211,25.3508 122.5,28.5C 123.675,28.281 124.675,28.6143 125.5,29.5C 122.5,30.8333 119.5,30.8333 116.5,29.5C 118.312,26.1011 118.979,22.4344 118.5,18.5C 115.752,18.5983 115.086,17.5983 116.5,15.5 Z"/></g>
<g><path style="opacity:0.785" fill="#af8aba" d="M 133.5,14.5 C 136.448,14.2229 139.281,14.5562 142,15.5C 143.204,19.7159 143.87,24.0492 144,28.5C 144.914,27.3463 145.747,27.513 146.5,29C 144.15,32.0507 141.65,32.2174 139,29.5C 134.721,32.6393 131.555,31.8059 129.5,27C 130.991,23.5729 133.658,21.5729 137.5,21C 138.93,19.1197 138.596,17.6197 136.5,16.5C 135.491,19.337 133.491,20.6703 130.5,20.5C 130.028,17.6421 131.028,15.6421 133.5,14.5 Z M 136.5,23.5 C 139.078,25.1258 138.912,26.7924 136,28.5C 133.99,26.6037 134.157,24.937 136.5,23.5 Z"/></g>
<g><path style="opacity:0.852" fill="#af8aba" d="M 151.5,14.5 C 156.116,13.4427 159.449,14.9427 161.5,19C 160.095,20.2692 158.429,20.7692 156.5,20.5C 156.434,16.247 154.934,15.5803 152,18.5C 150.295,26.4795 152.962,28.8128 160,25.5C 160.835,29.706 159.002,31.706 154.5,31.5C 147.727,30.3025 145.227,26.3025 147,19.5C 148.025,17.313 149.525,15.6464 151.5,14.5 Z"/></g>
</svg>
